<svg width="61" height="64" viewBox="0 0 61 64" fill="none" xmlns="http://www.w3.org/2000/svg">
<path d="M7.64603 63.7048C6.98436 63.2413 7.10857 62.2015 7.85684 61.94C8.95076 61.5577 9.71768 63.0481 8.76897 63.7126C8.22003 64.0971 8.20608 64.097 7.64603 63.7048ZM12.1788 58.7047C10.5431 58.2014 9.22253 56.4207 9.22253 54.7184C9.22253 53.2556 10.2337 51.6508 11.6378 50.8854C12.2787 50.5359 13.2022 50.5128 28.5758 50.4612L44.8359 50.4066V51.812V53.2174H33.0668C20.451 53.2174 20.4045 53.2212 20.7099 54.1833L20.8479 54.6183H32.8419H44.8359V56.8197V59.0211L28.976 59.0071C15.761 58.9956 12.9598 58.9451 12.1788 58.7047ZM1.47152 57.3848C0.0929504 57.0179 -0.474524 55.1926 0.458303 54.1257C1.76744 52.6284 4.21063 53.4807 4.21063 55.4347C4.21063 56.8124 2.88019 57.7597 1.47152 57.3848ZM57.2072 52.7172C56.8663 51.9691 57.2638 51.2162 57.9998 51.2162C58.7034 51.2162 59.0447 51.543 59.0447 52.2168C59.0447 52.8907 58.7034 53.2175 57.9998 53.2175C57.5917 53.2175 57.3719 53.0787 57.2072 52.7172ZM9.21374 49.598C9.21374 48.6806 9.31312 48.2512 9.61399 47.8687C9.83413 47.5889 10.0142 47.2041 10.0142 47.0136C10.0142 46.8232 9.83413 46.4384 9.61399 46.1585C9.2738 45.726 9.21374 45.3466 9.21374 43.63C9.21374 42.3555 9.29112 41.6103 9.42342 41.6103C9.82521 41.6103 10.6146 42.6727 10.6146 43.2135C10.6146 44.0533 11.3193 44.8122 12.0991 44.8122C13.0329 44.8122 13.524 44.2016 13.4811 43.0936C13.4116 41.297 11.9032 39.3376 10.1372 38.7499L9.31381 38.4758L9.25678 36.4408C9.22353 35.2547 9.27872 34.4058 9.38908 34.4058C9.77971 34.4058 10.6146 35.6495 10.6146 36.2313C10.6146 36.5953 10.8049 37.0158 11.1058 37.3167C12.2648 38.4757 13.8141 37.3966 13.4974 35.651C13.1527 33.7509 11.8068 32.214 9.96421 31.6163L9.21374 31.3729V29.3872C9.21374 28.1392 9.29148 27.4014 9.42297 27.4014C9.85986 27.4014 10.6146 28.3926 10.6146 28.9663C10.6146 29.8407 11.3062 30.6034 12.0991 30.6034C13.0358 30.6034 13.524 29.9932 13.4808 28.8763C13.409 27.0213 11.8294 25.0187 10.0643 24.5449L9.21374 24.3165V22.2567C9.21374 21.1239 9.2958 20.1969 9.39608 20.1969C9.7448 20.1969 10.6146 21.4316 10.6146 21.9265C10.6146 23.5353 12.6144 24.1558 13.3313 22.7695C14.1876 21.1136 12.2406 17.9947 9.96859 17.3829L9.21374 17.1797V15.1861C9.21374 13.5926 9.27105 13.1926 9.4994 13.1926C9.93045 13.1926 10.6146 14.1748 10.6146 14.7936C10.6146 15.6355 11.3185 16.3946 12.0991 16.3946C13.0358 16.3946 13.524 15.7844 13.4808 14.6675C13.409 12.8125 11.8294 10.8098 10.0643 10.336C9.10076 10.0774 9.04357 9.87806 9.59199 8.6898C10.3948 6.9504 11.5715 6.38838 14.4105 6.38838H16.4182V27.7016V49.0149H14.6534C12.5866 49.0149 11.2077 49.3741 10.047 50.2149L9.21374 50.8185V49.598ZM17.8191 47.614V46.2131H32.8284H47.8377V47.614V49.0149H32.8284H17.8191V47.614ZM7.64029 47.5871C6.58576 47.3937 5.58413 46.6657 4.85317 45.5611C4.08075 44.3939 4.0858 42.6962 4.86564 41.3678C5.17007 40.8493 5.575 40.3376 5.76548 40.2308C6.0815 40.0537 6.06564 39.9873 5.58432 39.4726C3.94443 37.719 3.85109 35.2479 5.3616 33.5759L6.05833 32.8048L5.3616 32.0335C4.56487 31.1517 4.09516 29.5898 4.31728 28.5609C4.5334 27.5599 5.13664 26.4885 5.72579 26.0594L6.25448 25.6742L5.73545 25.3341C5.16286 24.959 4.53724 23.8586 4.31728 22.8397C4.09516 21.8109 4.56487 20.249 5.3616 19.3671L6.05833 18.5959L5.3616 17.8247C4.5758 16.9549 4.09401 15.3779 4.29188 14.3232C4.68745 12.2146 6.80768 10.6313 8.94093 10.8515C10.8713 11.0507 12.4593 12.5123 12.7337 14.3423C12.8463 15.0927 12.8067 15.306 12.5157 15.5188C11.9785 15.9116 11.4888 15.5351 11.3419 14.6162C10.8902 11.7912 6.98468 11.3698 5.91981 14.0311C5.5089 15.0581 5.63953 15.9592 6.31585 16.763C6.88785 17.4427 7.47656 17.7014 9.10163 17.9871C10.5119 18.2351 11.3923 18.7903 12.0958 19.8752C13.0522 21.3503 13.0051 22.6985 11.9971 22.6985C11.6088 22.6985 11.5011 22.5699 11.4076 21.9952C11.1354 20.3206 10.0799 19.3964 8.43936 19.3964C7.59264 19.3964 7.31096 19.4979 6.72163 20.0154C5.72475 20.8906 5.44968 21.9168 5.89757 23.0896C6.3106 24.1711 7.0423 24.7414 8.23419 24.9108C10.4943 25.2319 11.6165 25.9344 12.3353 27.478C12.9144 28.7218 12.9516 29.5161 12.4434 29.7881C11.9323 30.0616 11.4974 29.6803 11.3381 28.819C11.1453 27.7765 10.3331 26.8484 9.39171 26.5949C7.81915 26.1715 6.4597 26.8392 5.89757 28.3111C5.19523 30.1501 6.36838 31.8301 8.54084 32.0962C9.18611 32.1753 10.0046 32.3763 10.3598 32.5429C11.8022 33.2197 13.0408 35.2838 12.7352 36.5015C12.6262 36.9358 12.5033 37.0212 12.0609 36.97C11.6152 36.9184 11.4996 36.7839 11.4045 36.2069C11.25 35.2689 10.9504 34.7556 10.1784 34.106C9.60291 33.6218 9.40748 33.5721 8.37258 33.6469C7.43022 33.7151 7.09845 33.8398 6.60746 34.3102C5.70521 35.1746 5.46793 36.1734 5.89757 37.2984C6.33768 38.4508 7.03231 38.9386 8.59063 39.1896C9.27446 39.2997 10.2085 39.5967 10.6664 39.8496C11.6502 40.3931 12.6006 41.8128 12.756 42.9712C12.8471 43.6504 12.797 43.8077 12.4267 44.0059C11.8478 44.3157 11.5014 44.0208 11.3503 43.0894C11.0051 40.9621 8.56554 39.9741 6.7778 41.2374C5.97688 41.8034 5.49267 43.2261 5.77746 44.1767C6.08553 45.205 6.95855 45.9814 8.13233 46.2711C8.89546 46.4594 9.12751 46.6104 9.17586 46.95C9.2613 47.5502 8.7029 47.7819 7.64029 47.5871ZM55.1423 45.6331C54.8121 45.425 53.5285 44.2305 52.29 42.9786L50.0381 40.7024L51.8478 38.9049L53.6576 37.1074L56.2349 39.7211C58.2643 41.7791 58.8404 42.4848 58.9447 43.0408C59.3367 45.1305 56.9388 46.7653 55.1423 45.6331ZM17.8191 44.1131V43.4113H21.8073C25.1661 43.4113 25.8451 43.3617 26.11 43.0969C26.4732 42.7336 26.4882 42.6216 26.2289 42.2106C26.0726 41.9631 25.318 41.8996 21.9292 41.8489L17.8191 41.7874V41.0985V40.4095H21.8816C24.7745 40.4095 26.0133 40.3403 26.1843 40.1693C26.5008 39.8528 26.4874 39.7005 26.1099 39.3231C25.8451 39.0582 25.1661 39.0086 21.8073 39.0086H17.8191V24.7985V10.5884L32.7784 10.6397L47.7377 10.691L47.794 13.0425C47.825 14.3358 47.7932 15.3939 47.7228 15.3939C47.6527 15.3939 47.3204 15.1626 46.9845 14.88C46.0901 14.1274 43.4905 12.8709 42.0157 12.4783C40.0966 11.9674 36.9588 12.0149 34.8714 12.5864C33.0989 13.0717 30.4301 14.5307 29.2596 15.6543C24.7738 19.9603 23.6832 26.7486 26.5852 32.3012C27.6436 34.3263 30.0439 36.6865 32.1279 37.7513C34.2261 38.8233 35.5384 39.1954 37.7412 39.3428C39.9013 39.4873 41.7506 39.2041 43.7716 38.4193L45.2184 37.8575L46.5352 39.2215L47.852 40.5854L47.7948 42.6488L47.7376 44.7121L32.7783 44.7634L17.819 44.8147L17.8191 44.1131ZM48.6826 39.3732C48.5481 39.2387 48.4381 39.0321 48.4381 38.9141C48.4381 38.7961 49.203 37.9387 50.1378 37.0087C51.7512 35.4037 51.8551 35.3355 52.1848 35.6652C52.5145 35.9949 52.4406 36.1041 50.7296 37.8151C49.3099 39.2348 48.8751 39.5657 48.6826 39.3732ZM1.12194 38.1425C0.366955 37.5904 0.863327 36.2069 1.81638 36.2069C2.26355 36.2069 2.80977 36.842 2.80977 37.362C2.80977 37.7742 2.13895 38.4082 1.7028 38.4082C1.58323 38.4082 1.32184 38.2886 1.12194 38.1425ZM37.1311 37.8961C36.9109 37.8454 36.2355 37.7052 35.6302 37.5846C32.6122 36.9832 29.1637 34.2687 27.7532 31.3842C26.6634 29.1554 26.3599 27.6938 26.4697 25.2025C26.7061 19.8373 29.7802 15.8154 34.9782 14.0705C36.1813 13.6666 36.8649 13.5704 38.5499 13.5678C40.9115 13.564 42.2009 13.8655 44.2235 14.8941C45.9921 15.7935 46.7498 16.3844 47.9596 17.8079C49.8797 20.0672 50.8396 22.7101 50.8396 25.7372C50.8396 27.7469 50.5187 29.1954 49.648 31.1156L49.0502 32.4341L49.9368 33.3821L50.8235 34.33L49.0411 36.1042L47.2586 37.8784L46.3519 37.0427C45.3491 36.1183 45.2201 36.0784 44.5787 36.4941C43.5792 37.1419 40.9661 37.8381 39.2527 37.913C38.306 37.9544 37.3512 37.9468 37.1311 37.8961V37.8961ZM40.3331 35.4091C42.1296 35.1172 44.3318 33.9498 45.6418 32.595C51.7082 26.3206 47.2857 15.9943 38.532 15.9943C34.5783 15.9943 31.2548 18.1335 29.5972 21.7453C27.9512 25.3319 28.6389 29.4659 31.3728 32.4187C33.684 34.9151 36.8566 35.9739 40.3331 35.4091ZM36.9611 33.9957C34.0898 33.5139 31.479 31.1747 30.5273 28.2312C30.0158 26.6492 30.1722 23.8736 30.8561 22.3983C33.8721 15.8915 43.0192 15.7083 46.1426 22.0923C48.5919 27.0985 45.4943 33.1053 40.004 33.9962C38.5809 34.2271 38.3401 34.2271 36.9611 33.9956V33.9957ZM38.0448 28.9953C38.2577 28.8814 38.4319 28.6144 38.4319 28.402C38.4319 27.7617 37.7767 27.6015 35.1573 27.6015C33.151 27.6015 32.5947 27.6637 32.3424 27.916C32.1694 28.089 32.0279 28.3077 32.0279 28.402C32.0279 28.4964 32.1694 28.7151 32.3424 28.888C32.5947 29.1404 33.151 29.2025 35.1573 29.2025C36.5325 29.2025 37.8319 29.1093 38.0448 28.9953ZM44.7739 25.8733C44.8431 25.6932 44.8079 25.4005 44.6959 25.2229C44.5173 24.9395 43.7682 24.8933 38.6025 24.8469C32.2477 24.7898 31.8262 24.8492 32.1169 25.7656C32.2548 26.1999 32.2656 26.2007 38.4517 26.2007C44.004 26.2007 44.6614 26.1666 44.7739 25.8733ZM44.5193 23.2774C45.0165 23.0867 44.9191 22.2261 44.3856 22.0959C44.1379 22.0354 41.3335 22.0112 38.1534 22.042C33.0133 22.0919 32.3482 22.1351 32.1613 22.4315C32.0088 22.6734 32.0233 22.852 32.2141 23.0819C32.4431 23.3579 33.2348 23.3989 38.3399 23.3989C41.5645 23.3989 44.3452 23.3442 44.5193 23.2774L44.5193 23.2774ZM56.6432 20.1969C56.4231 19.9768 56.243 19.6616 56.243 19.4965C56.243 19.13 56.9474 18.3958 57.2991 18.3958C57.7833 18.3958 58.4443 19.0198 58.4443 19.4768C58.4443 19.9986 57.8746 20.5972 57.3779 20.5972C57.194 20.5972 56.8633 20.4171 56.6432 20.1969ZM0.890181 17.8955C0.586509 17.432 0.586509 17.3583 0.890181 16.8949C1.49334 15.9743 2.80977 16.3672 2.80977 17.4678C2.80977 18.3931 1.41924 18.7029 0.890181 17.8955ZM56.2225 11.5376C53.7536 9.88819 55.0523 6.15417 57.9912 6.45258C59.1429 6.56953 59.8077 7.05314 60.2779 8.11615C61.3966 10.6451 58.5198 13.0722 56.2225 11.5376ZM17.8191 7.78925V6.38838H32.8284H47.8377V7.78925V9.19012H32.8284H17.8191V7.78925ZM53.051 2.49805C52.7088 2.08576 52.8715 1.17628 53.343 0.865197C54.2682 0.254825 55.3288 1.67044 54.5385 2.46079C54.1358 2.8635 53.3702 2.88268 53.051 2.49808V2.49805ZM9.42696 1.60985C9.12144 1.03897 9.16222 0.693429 9.57972 0.315597C10.0731 -0.130937 10.6749 -0.101594 11.1204 0.390708C11.4112 0.712039 11.4483 0.91085 11.2979 1.3413C11.1444 1.78051 10.966 1.89742 10.3739 1.94691C9.80717 1.99426 9.59164 1.91756 9.42696 1.60985Z" fill="white"/>
</svg>
