<svg width="64" height="48" viewBox="0 0 64 48" fill="none" xmlns="http://www.w3.org/2000/svg">
<path d="M9.30029 47.5886C9.2345 47.5228 9.18066 46.9682 9.18066 46.3562V45.2434H11.3769H13.5732V36.2825V27.3217H10.4106C8.45472 27.3217 7.24794 27.3877 7.24794 27.4945C7.24794 27.5896 8.31533 30.5163 9.61992 33.9984C10.9245 37.4805 11.9919 40.4755 11.9919 40.654C11.9919 41.1598 10.3481 42.5733 9.05766 43.1772C7.05621 44.1138 4.66272 44.0582 2.60855 43.0274C1.54694 42.4947 0.114936 41.3162 0.00130492 40.8817C-0.0450871 40.7043 1.15133 37.2842 2.66001 33.2815L5.40307 26.004L9.48814 25.9568L13.5732 25.9097V24.7708V23.632H14.8031H16.0331V24.7741V25.9161H20.046H24.059L24.2726 26.385C24.8155 27.5765 29.5621 40.394 29.5621 40.6684C29.5621 41.161 27.9046 42.5792 26.6144 43.1903C25.52 43.7088 25.2975 43.7499 23.5883 43.7499C21.9358 43.7499 21.634 43.6987 20.6948 43.2589C19.4909 42.6952 17.8861 41.5342 17.6177 41.0328C17.4703 40.7573 17.8991 39.4553 19.8306 34.3139C21.1483 30.8065 22.2653 27.7983 22.3128 27.6292C22.3929 27.3445 22.1636 27.3218 19.2162 27.3218H16.0331V36.2826V45.2434H18.1495H20.266L20.214 46.4294L20.1621 47.6154L14.791 47.6618C11.8369 47.6873 9.36609 47.6544 9.3003 47.5886L9.30029 47.5886ZM10.0147 39.577C9.96962 39.4562 9.07167 37.0458 8.01929 34.2206C6.96691 31.3954 6.06046 29.0827 6.00495 29.0813C5.91041 29.0786 1.97687 39.4296 1.97687 39.6807C1.97687 39.7444 3.80385 39.7966 6.03682 39.7966C9.2114 39.7966 10.0789 39.7487 10.0147 39.577ZM27.585 39.577C27.5399 39.4562 26.6419 37.0458 25.5895 34.2206C24.5371 31.3954 23.6307 29.0827 23.5752 29.0813C23.4806 29.0786 19.5471 39.4296 19.5471 39.6807C19.5471 39.7444 21.3741 39.7966 23.6071 39.7966C26.7816 39.7966 27.6491 39.7487 27.585 39.577ZM31.8023 47.6098C31.7299 47.5323 31.6706 41.7103 31.6706 34.6719V21.875L20.4695 21.8736C13.6606 21.8731 9.02432 21.8048 8.64576 21.6996C7.9393 21.5034 7.00895 20.6221 6.73161 19.8865C6.27801 18.6834 6.75823 16.9762 7.74863 16.2709C8.74079 15.5645 9.69287 15.5275 23.1453 15.6736L35.9679 15.8129L37.9921 20.3078L40.0164 24.8027L40.0632 20.176L40.1101 15.5493H41.6007H43.0913L43.0959 20.3372L43.1006 25.1251L45.2371 20.4093L47.3737 15.6935L49.8447 15.7634C51.8845 15.8211 52.4916 15.9026 53.3235 16.2301C55.5183 17.0943 57.1748 18.6168 58.2662 20.7731C59.0609 22.3432 59.2505 23.5757 59.2534 27.1896L59.256 30.4841H61.628H64V39.0057V47.5272L57.8065 47.5274C54.4001 47.5275 47.1853 47.5777 41.7736 47.639C36.362 47.7003 31.875 47.687 31.8025 47.6095L31.8023 47.6098ZM62.2428 43.3985V40.8508H60.7717H59.3005L59.2169 41.7219C59.0739 43.2096 57.9018 44.3649 56.5355 44.3649C55.0512 44.3649 53.9117 43.29 53.6994 41.6897L53.5881 40.8508H49.6574H45.7268V43.3985V45.9462H53.9848H62.2428V43.3985ZM53.6334 35.6676V32.2414H49.6801H45.7268V35.6676V39.0938H49.6801H53.6334V35.6676ZM62.2428 35.6676V32.2414H60.7493H59.2558V35.6676V39.0938H60.7493H62.2428V35.6676ZM53.6334 28.0245V25.5647H52.7549H51.8763V28.0245V30.4844H52.7549H53.6334V28.0245ZM39.6274 13.1964C37.8012 12.6008 36.2132 11.1902 35.3885 9.43086C34.9798 8.55906 34.9211 8.2124 34.9211 6.673C34.9211 5.04258 34.9632 4.82666 35.4906 3.75546C36.1764 2.36226 37.4331 1.12844 38.8361 0.470898C39.7158 0.0585488 40.0592 0 41.5978 0C43.1961 0 43.458 0.0489466 44.4973 0.541489C49.709 3.01138 49.7105 10.3596 44.5 12.8028C43.5605 13.2434 43.0988 13.3458 41.8645 13.3874C40.9365 13.4187 40.0867 13.3462 39.6276 13.1964H39.6274Z" fill="white"/>
</svg>
