<svg width="20" height="20" viewBox="0 0 20 20" fill="none" xmlns="http://www.w3.org/2000/svg">
<path fill-rule="evenodd" clip-rule="evenodd" d="M0 10C0 4.5 4.47 0 10 0C11.313 0 12.614 0.2587 13.827 0.7612C15.04 1.2638 16.142 2.0003 17.071 2.9289C18 3.8575 18.736 4.9599 19.239 6.1732C19.741 7.3864 20 8.6868 20 10C20 12.6522 18.946 15.1957 17.071 17.0711C15.196 18.9464 12.652 20 10 20C8.687 20 7.386 19.7413 6.173 19.2388C4.96 18.7362 3.858 17.9997 2.929 17.0711C1.054 15.1957 0 12.6522 0 10ZM11.91 6C11.5 4.57 10.83 3.23 10 2.03C9.17 3.23 8.5 4.57 8.09 6H11.91ZM6 6H3.08C4.03 4.34 5.57 3.06 7.4 2.44C6.8 3.55 6.35 4.75 6 6ZM12.5 10C12.5 10.68 12.43 11.34 12.34 12H7.66C7.56 11.34 7.5 10.68 7.5 10C7.5 9.32 7.56 8.65 7.66 8H12.34C12.43 8.65 12.5 9.32 12.5 10ZM14.5 10C14.5 10.68 14.44 11.34 14.36 12H17.74C17.9 11.36 18 10.69 18 10C18 9.31 17.9 8.64 17.74 8H14.36C14.44 8.66 14.5 9.32 14.5 10ZM13.97 14C13.65 15.25 13.19 16.45 12.59 17.56C14.43 16.93 15.96 15.65 16.92 14H13.97ZM8.09 14C8.5 15.43 9.17 16.76 10 17.96C10.83 16.76 11.5 15.43 11.91 14H8.09ZM6 14H3.08C4.03 15.65 5.57 16.93 7.4 17.56C6.8 16.45 6.35 15.25 6 14ZM2.26 12C2.1 11.36 2 10.69 2 10C2 9.31 2.1 8.64 2.26 8H5.64C5.56 8.66 5.5 9.32 5.5 10C5.5 10.68 5.56 11.34 5.64 12H2.26ZM16.92 6H13.97C13.65 4.75 13.19 3.55 12.59 2.44C14.43 3.07 15.96 4.34 16.92 6Z" fill="#045FAF"/>
</svg>
