<svg width="16" height="17" viewBox="0 0 16 17" fill="none" xmlns="http://www.w3.org/2000/svg">
<path fill-rule="evenodd" clip-rule="evenodd" d="M4.939 1.2633C5.909 0.861197 6.949 0.654297 8 0.654297C9.051 0.654297 10.091 0.861197 11.061 1.2633C12.032 1.6653 12.914 2.2546 13.657 2.9974C14.4 3.7403 14.989 4.6222 15.391 5.5928C15.793 6.5634 16 7.6037 16 8.6543C16 10.776 15.157 12.8109 13.657 14.3112C12.157 15.8114 10.122 16.6543 8 16.6543C6.949 16.6543 5.909 16.4474 4.939 16.0453C3.968 15.6433 3.086 15.054 2.343 14.3112C0.843 12.8109 0 10.776 0 8.6543C0 6.5326 0.843 4.4977 2.343 2.9974C3.086 2.2546 3.968 1.6653 4.939 1.2633ZM12.525 4.1288C11.325 2.9286 9.697 2.2543 8 2.2543V15.0543C9.697 15.0543 11.325 14.38 12.525 13.1798C13.726 11.9796 14.4 10.3517 14.4 8.6543C14.4 6.9569 13.726 5.329 12.525 4.1288Z" fill="#999"/>
</svg>
