<svg width="16" height="17" viewBox="0 0 16 17" fill="none" xmlns="http://www.w3.org/2000/svg">
<path fill-rule="evenodd" clip-rule="evenodd" d="M11.061 1.2633C10.091 0.861197 9.051 0.654297 8 0.654297C6.949 0.654297 5.909 0.861197 4.939 1.2633C3.968 1.6653 3.086 2.2546 2.343 2.9974C1.6 3.7403 1.011 4.6222 0.609 5.5928C0.207 6.5634 0 7.6037 0 8.6543C0 10.776 0.843 12.8109 2.343 14.3112C3.843 15.8114 5.878 16.6543 8 16.6543C9.051 16.6543 10.091 16.4474 11.061 16.0453C12.032 15.6433 12.914 15.054 13.657 14.3112C15.157 12.8109 16 10.776 16 8.6543C16 6.5326 15.157 4.4977 13.657 2.9974C12.914 2.2546 12.032 1.6653 11.061 1.2633ZM3.475 4.1288C4.675 2.9286 6.303 2.2543 8 2.2543V15.0543C6.303 15.0543 4.675 14.38 3.475 13.1798C2.274 11.9796 1.6 10.3517 1.6 8.6543C1.6 6.9569 2.274 5.329 3.475 4.1288Z" fill="#999"/>
</svg>
