<svg width="64" height="55" viewBox="0 0 64 55" fill="none" xmlns="http://www.w3.org/2000/svg">
<path d="M35.2827 54.8981C35.1636 54.85 35.066 54.6808 35.0657 54.5219C35.0647 53.8497 39.2839 40.0063 39.5865 39.6891C39.8496 39.4133 40.2475 39.3311 41.7752 39.2367C43.6267 39.1222 44.5996 38.9302 45.8385 38.4345C46.4778 38.1786 46.4807 38.1729 46.3837 37.3534C46.3229 36.8404 46.3686 36.3755 46.5048 36.121C46.7222 35.7147 60.4591 19.0542 61.463 17.9793C62.3022 17.0807 63.307 17.2701 63.307 18.3269C63.307 18.7243 61.822 20.6135 55.7675 27.9184L48.2281 37.015L50.3431 39.2506C52.1286 41.138 52.4996 41.4535 52.7246 41.276C52.8712 41.1603 55.0805 39.253 57.6341 37.0375C61.4322 33.7423 62.3701 33.0093 62.7881 33.0093C63.4184 33.0093 63.9609 33.7069 63.7206 34.2084C63.5907 34.4797 55.227 41.8396 53.7112 43.0166C53.3662 43.2845 52.9744 43.4047 52.4462 43.4047C51.7337 43.4047 51.6635 43.4469 51.4245 44.0188C50.9697 45.1072 50.6665 46.5689 50.5314 48.3244C50.4118 49.877 50.3585 50.0688 49.9662 50.3552C49.6366 50.5958 35.7579 55.0648 35.5439 54.9992C35.5194 54.9916 35.4019 54.9462 35.2827 54.8981ZM44.8119 50.0507L48.5802 48.8944V48.0745C48.5802 46.7295 49.0856 44.4369 49.6585 43.1833L50.1952 42.0091L49.6934 41.4508C49.4174 41.1437 48.929 40.6081 48.6082 40.2605L48.0247 39.6285L47.1174 40.0439C45.9031 40.5998 43.94 41.0875 42.299 41.2409L40.9556 41.3664L40.5316 42.7754C39.2431 47.057 38.1848 50.6746 38.1848 50.7973C38.1848 50.8742 39.3933 49.7305 40.8703 48.2558C42.3473 46.7811 43.5557 45.4477 43.5557 45.2926C43.5557 44.8683 44.1876 44.1506 44.6671 44.0302C45.175 43.9028 45.9536 44.1711 46.2649 44.5809C46.6411 45.0761 46.5504 45.97 46.0758 46.4445C45.8419 46.6784 45.5094 46.8698 45.3369 46.8698C45.1644 46.8698 44.051 47.8444 42.8627 49.0355C41.6744 50.2266 40.779 51.2025 40.8729 51.2041C40.9667 51.2054 42.7393 50.6867 44.8119 50.0507ZM16.2025 54.3195C15.3575 54.12 14.7634 53.6272 14.3187 52.757L13.9289 51.9941V31.887C13.9289 12.6337 13.9425 11.7545 14.2503 11.1806C14.4271 10.8509 14.8632 10.3454 15.2193 10.0571L15.8669 9.53302H31.9203C49.9922 9.53302 48.6252 9.42968 49.5771 10.8677L50.0529 11.5863L50.1024 20.0577L50.152 28.529L47.6521 31.5215C45.1331 34.5368 44.6333 35.2629 44.4217 36.2145C44.3447 36.5609 44.2243 36.7054 44.0609 36.6477C43.9259 36.6 38.5214 36.5405 32.0507 36.5153C21.7078 36.4751 20.2367 36.5018 19.8794 36.7359C19.4189 37.0376 19.351 37.6273 19.7189 38.1305C19.9559 38.4548 20.2841 38.4686 28.8772 38.5147L37.7898 38.5625L37.4242 39.5079L37.0586 40.4534L28.6509 40.4566C19.3962 40.4599 19.473 40.4514 19.473 41.4877C19.473 42.4594 19.3503 42.4447 28.22 42.5387L36.3943 42.6253L36.1425 43.5299L35.8908 44.4345L27.9277 44.4828C20.2748 44.5292 19.9551 44.5442 19.7189 44.8674C19.3594 45.3592 19.4183 45.9458 19.8581 46.2539C20.1923 46.4879 21.2371 46.5236 27.7598 46.5236C34.2821 46.5236 35.2636 46.5571 35.1793 46.7768C34.9082 47.4832 32.987 54.0252 32.987 54.2419C32.987 54.4584 31.8601 54.4909 24.8873 54.4756C20.4324 54.4659 16.5243 54.3957 16.2024 54.3198L16.2025 54.3195ZM42.1994 30.6435C42.4768 30.3923 42.5162 30.0628 42.5162 27.9911C42.5162 26.2215 42.4543 25.5407 42.2703 25.2892C42.0318 24.963 41.7234 24.9528 32.0328 24.9528H22.0413L21.6973 25.3776C21.3853 25.763 21.3586 26.0179 21.4095 28.1208C21.4592 30.1783 21.5034 30.4667 21.8019 30.6846C22.0828 30.8897 23.765 30.9302 32.0103 30.9302C40.9534 30.9302 41.9123 30.9032 42.1994 30.6435ZM46.8476 53.6215C48.3246 53.1514 49.5969 52.7654 49.6748 52.7636C50.0361 52.7557 49.016 53.8098 48.351 54.1317C47.7428 54.4261 47.2857 54.4915 45.8833 54.4846L44.1621 54.4762L46.8476 53.6215ZM5.87866 30.5715C1.50228 17.3731 -0.00435237 12.6211 9.43941e-06 12.0296C0.00740244 11.0272 0.523507 10.1614 1.40254 9.67652C1.93989 9.38014 25.151 1.82524 30.1284 0.326638C31.8451 -0.190231 32.7536 -0.103894 33.6221 0.658653C34.1934 1.16031 34.7197 1.95998 34.7197 2.32658C34.7197 2.42811 34.4126 2.38774 33.9833 2.2297C32.4526 1.6662 31.8806 1.78783 23.7179 4.41272C4.86174 10.4763 2.56294 11.2346 2.27739 11.4858C2.11063 11.6324 1.97419 11.9553 1.97419 12.2032C1.97419 12.4511 4.19719 19.3194 6.91419 27.4662L11.8542 42.2785L11.8087 45.2983L11.7632 48.3182L5.87866 30.5715ZM52.4304 36.7245C51.6087 36.1489 51.863 35.7377 54.7741 32.9347C58.9727 28.8921 59.2216 28.6779 59.7201 28.6779C60.1787 28.6779 60.7081 29.2251 60.7081 29.6992C60.7081 29.9399 55.5272 35.071 53.9735 36.3691C53.133 37.0713 52.9769 37.1073 52.4304 36.7245ZM11.5666 29.8744C11.4585 29.7404 10.8821 28.1397 10.2858 26.3173L9.20167 23.0038L9.52951 22.3436C9.91409 21.5691 10.5024 21.1019 11.2867 20.9483L11.8498 20.838V21.8992C11.8498 22.727 11.7926 22.9604 11.5899 22.9604C11.2734 22.9604 11.2731 22.9049 11.5945 23.8481C11.9267 24.8231 11.9014 30.2893 11.5666 29.8744H11.5666ZM63.5898 15.7354C63.523 15.6686 63.0617 15.5592 62.5647 15.4924C62.0677 15.4255 59.5196 14.6713 56.9023 13.8163L52.1435 12.2619L51.9499 11.5028C51.8434 11.0854 51.6587 10.5615 51.5394 10.3386C51.3452 9.97561 51.3557 9.94396 51.6406 10.035C51.8155 10.091 54.2976 10.879 57.1564 11.7863C60.0151 12.6936 62.549 13.5785 62.7872 13.7527C63.3449 14.1607 64 15.1239 64 15.536C64 15.8625 63.8095 15.9551 63.5898 15.7354ZM29.0022 7.20055C29.0022 6.75866 29.743 5.13173 30.0868 4.81865C31.3671 3.65274 31.935 3.71248 37.9983 5.65091L43.0961 7.28068L39.9907 7.33162L36.8854 7.3825L34.6122 6.65747C31.9908 5.82141 31.5659 5.83447 31.2307 6.76145C31.0147 7.35893 30.9978 7.36732 30.0069 7.36732C29.4543 7.36732 29.0022 7.29227 29.0022 7.20056V7.20055Z" fill="white"/>
</svg>
