<svg width="64" height="52" viewBox="0 0 64 52" fill="none" xmlns="http://www.w3.org/2000/svg">
<path d="M2.87859 51.1883C2.07342 50.6021 1.85136 49.8707 2.25931 49.1484C2.94059 47.9422 0.874977 48.0314 28.1346 48.0311C54.9591 48.0308 53.1015 48.0997 54.3566 47.0589C55.6918 45.9516 55.6337 46.4123 55.6337 36.9298V28.4389H58.7542H61.8747V40.009V51.579H32.645H3.41531L2.87859 51.1883ZM59.8703 41.8216L59.9164 33.8383H58.8449H57.7734V41.8679V49.8975L58.7987 49.8512L59.824 49.8049L59.8703 41.8216ZM59.9132 31.1386V30.2901H58.8434H57.7735V31.1386V31.9871H58.8434H59.9132V31.1386ZM1.96172 38.3686C1.96203 29.0711 1.93778 29.2588 3.20964 28.7092C3.78601 28.46 4.79165 28.4394 16.3602 28.4392L28.8867 28.4389V29.923V31.4071L31.2332 34.6667C32.5237 36.4595 33.7474 38.0892 33.9524 38.2881C34.5203 38.8391 35.1991 39.0834 36.1623 39.0834C37.6162 39.0834 37.9649 38.7684 40.7788 34.9138L43.3093 31.4471L43.3197 29.943L43.3301 28.4389H44.3108H45.2915V35.521V42.6031L48.7241 42.6574C51.1145 42.6952 52.2813 42.7727 52.5673 42.9128C53.0968 43.1721 53.6709 43.9889 53.6709 44.4827C53.6709 44.9759 53.0974 45.7926 52.5673 46.0541C52.2358 46.2178 47.397 46.2723 27.4602 46.3372C13.8772 46.3815 2.58331 46.4763 2.36265 46.548L1.96145 46.6785L1.96173 38.3686L1.96172 38.3686ZM18.5446 37.3864V30.2901H17.4747H16.4048V37.3864V44.4827H17.4747H18.5446V37.3864ZM22.6458 43.5571V42.6315H21.665H20.6843V43.5571V44.4827H21.665H22.6458V43.5571ZM26.747 37.3864V30.2901H25.7663H24.7855V37.3864V44.4827H25.7663H26.747V37.3864ZM31.0265 42.7086V40.9346H29.9566H28.8867V42.7086V44.4827H29.9566H31.0265V42.7086ZM35.1277 42.7086V40.9346H34.0578H32.9879V42.7086V44.4827H34.0578H35.1277V42.7086ZM39.2289 42.7086V40.9346H38.159H37.0891V42.7086V44.4827H38.159H39.2289V42.7086ZM43.3301 42.7086V40.9346H42.2602H41.1903V42.7086V44.4827H42.2602H43.3301V42.7086ZM13.3735 37.3093V31.0615H9.27228H5.17108V37.3093V43.5571H9.27228H13.3735V37.3093ZM22.6458 35.6124V30.2901H21.665H20.6843V35.6124V40.9346H21.665H22.6458V35.6124ZM52.959 41.1361C52.6015 41.0307 51.2869 40.9483 49.8817 40.9433L47.4284 40.9346L47.4744 32.0257L47.5205 23.1167H49.8464C51.766 23.1167 52.256 23.1642 52.6511 23.3882C53.6985 23.9819 53.6796 23.7969 53.6292 32.9462L53.5831 41.3203L52.959 41.1361ZM51.5325 32.9127V31.9871H50.5518H49.5711V32.9127V33.8383H50.5518H51.5325V32.9127ZM51.5325 29.3645V28.4389H50.5518H49.5711V29.3645V30.2901H50.5518H51.5325V29.3645ZM51.5325 25.8164V24.8908H50.5518H49.5711V25.8164V26.742H50.5518H51.5325V25.8164ZM35.8001 37.2539C35.539 37.1687 32.2515 32.8248 31.9732 32.1974C31.896 32.0235 32.6085 31.9871 36.0893 31.9871C38.4045 31.9871 40.2964 32.0392 40.2936 32.1028C40.2815 32.3717 36.7906 36.9835 36.465 37.1606C36.2689 37.2673 35.9697 37.3093 35.8001 37.2539ZM31.0265 21.3427V12.3851L33.0325 12.4287L35.0385 12.4723V21.3427V30.213L33.0325 30.2566L31.0265 30.3002V21.3427ZM37.208 30.1873C37.1426 30.1307 37.0891 26.1044 37.0891 21.2398V12.3952H39.1397H41.1903V21.3427V30.2901H39.2586C38.1962 30.2901 37.2734 30.2439 37.208 30.1873ZM21.5759 24.79C21.0398 24.6057 20.3081 23.8802 19.3997 22.6324L18.4711 21.3568L10.2467 21.3112L2.02238 21.2655L1.35264 20.8234C-0.0710371 19.8836 0.00141525 20.3801 0.000666499 11.5603L0 3.70618L0.443263 3.05181C0.741079 2.61215 1.1437 2.28973 1.67029 2.06919C2.4456 1.74448 2.56374 1.74141 12.6085 1.7844L22.763 1.82787L23.437 2.27276C24.8241 3.18829 24.7772 2.79482 24.7813 13.5522C24.7847 22.3572 24.7602 23.1587 24.4732 23.6457C24.3017 23.9366 23.9539 24.3062 23.7002 24.4669C23.2212 24.7704 22.0409 24.9499 21.5759 24.79ZM13.3735 16.8689V15.9433H14.8891H16.4048V14.192C16.4048 12.6299 16.3615 12.3857 16.0036 11.9308C15.2447 10.9661 14.7993 10.7966 12.7658 10.699C10.5902 10.5946 10.3422 10.4741 10.3422 9.52234V8.84702H12.0361C13.4924 8.84702 13.7802 8.89032 14.0867 9.15555C14.2829 9.32525 14.4434 9.53351 14.4434 9.61836C14.4434 9.70321 14.8847 9.77262 15.4241 9.77262C16.3836 9.77262 16.4048 9.76311 16.4048 9.33264C16.4048 8.42891 14.9267 7.15008 13.8821 7.15008C13.3793 7.15008 13.3735 7.13942 13.3735 6.22448V5.29888H12.3036H11.2337V6.14111V6.98334L9.76265 7.02815L8.29156 7.07295L8.23748 8.46136C8.16679 10.276 8.28233 10.7448 8.96624 11.4187C9.75147 12.1924 10.4247 12.3952 12.2087 12.3952C14.0326 12.3952 14.4434 12.622 14.4434 13.6293V14.2464H12.9393C11.2386 14.2464 10.5281 14.0737 10.3933 13.6274C10.3137 13.3643 10.1484 13.3208 9.2292 13.3208H8.15782L8.27245 13.8166C8.5096 14.8425 9.88699 15.9433 10.9334 15.9433C11.1774 15.9433 11.2337 16.0976 11.2337 16.7661C11.2337 17.2186 11.2872 17.6351 11.3526 17.6917C11.418 17.7482 11.8994 17.7945 12.4225 17.7945H13.3735L13.3735 16.8689ZM46.1621 18.8925L45.4699 18.2936V11.8191V5.34451L45.8753 4.824C46.4956 4.0276 47.297 3.63866 48.5521 3.52476C49.1615 3.46945 52.3483 3.44683 55.6337 3.4745C61.3788 3.52288 61.6345 3.53768 62.3205 3.86137C62.7127 4.04648 63.2343 4.45772 63.4795 4.77524C63.9223 5.34864 63.9257 5.37982 63.9829 9.37523C64.0449 13.7092 63.9735 14.2067 63.171 15.0317C62.3264 15.9001 62.0167 15.9433 56.6335 15.9433H51.7375L50.5757 17.4773C49.3105 19.148 48.8026 19.4915 47.5975 19.4915C46.9721 19.4915 46.7448 19.3966 46.1621 18.8925ZM56.1292 10.6553L59.5634 7.68124L58.8489 7.07762L58.1343 6.47399L55.478 8.74038C54.017 9.98689 52.7561 11.0068 52.6759 11.0068C52.5958 11.0068 52.264 10.7835 51.9387 10.5107L51.3471 10.0147L50.5964 10.6642L49.8456 11.3137L51.175 12.4715C51.9061 13.1083 52.5472 13.6293 52.5996 13.6293C52.6521 13.6293 54.2404 12.291 56.1292 10.6553ZM31.0265 9.77262V8.84702H36.1084H41.1903V9.77262V10.6982H36.1084H31.0265V9.77262ZM31.0006 5.64598C30.9633 3.70443 31.0212 3.2901 31.4257 2.60413C32.2863 1.14464 33.4665 0.339511 35.1277 0.0786303C37.5118 -0.295782 39.7085 0.686966 40.7619 2.59921C41.1345 3.27548 41.1871 3.59393 41.1886 5.18318L41.1904 6.99582H36.1084H31.0265L31.0006 5.64598Z" fill="white"/>
</svg>
